<?xml version="1.0" encoding="UTF-8" standalone="no"?>
<!-- Created with Inkscape (http://www.inkscape.org/) -->

<svg
   xmlns:dc="http://purl.org/dc/elements/1.1/"
   xmlns:cc="http://creativecommons.org/ns#"
   xmlns:rdf="http://www.w3.org/1999/02/22-rdf-syntax-ns#"
   xmlns:svg="http://www.w3.org/2000/svg"
   xmlns="http://www.w3.org/2000/svg"
   xmlns:sodipodi="http://sodipodi.sourceforge.net/DTD/sodipodi-0.dtd"
   xmlns:inkscape="http://www.inkscape.org/namespaces/inkscape"
   width="256"
   height="256"
   viewBox="0 0 67.73333 67.733336"
   version="1.1"
   id="svg8"
   inkscape:version="0.92.4 (5da689c313, 2019-01-14)"
   sodipodi:docname="main.svg">
  <defs
     id="defs2" />
  <sodipodi:namedview
     id="base"
     pagecolor="#808080"
     bordercolor="#cb66d3"
     borderopacity="1"
     inkscape:pageopacity="0"
     inkscape:pageshadow="2"
     inkscape:zoom="1.4"
     inkscape:cx="53.119391"
     inkscape:cy="214.70164"
     inkscape:document-units="px"
     inkscape:current-layer="layer1"
     showgrid="true"
     units="px"
     width="1920px"
     inkscape:pagecheckerboard="false"
     borderlayer="false"
     inkscape:showpageshadow="false"
     inkscape:window-width="1920"
     inkscape:window-height="1043"
     inkscape:window-x="0"
     inkscape:window-y="0"
     inkscape:window-maximized="1"
     inkscape:snap-global="false"
     inkscape:snap-nodes="false"
     inkscape:snap-center="true">
    <inkscape:grid
       type="xygrid"
       id="grid159"
       empspacing="128"
       dotted="false"
       enabled="true" />
  </sodipodi:namedview>
  <metadata
     id="metadata5">
    <rdf:RDF>
      <cc:Work
         rdf:about="">
        <dc:format>image/svg+xml</dc:format>
        <dc:type
           rdf:resource="http://purl.org/dc/dcmitype/StillImage" />
        <dc:title></dc:title>
      </cc:Work>
    </rdf:RDF>
  </metadata>
  <g
     inkscape:label="Layer 1"
     inkscape:groupmode="layer"
     id="layer1"
     transform="translate(0,-229.26665)">
    <g
       id="g142"
       transform="translate(-40.624968,-778.28886)">
      <path
         id="path71"
         d="m 999.82473,77.232177 c -6.19736,-70.8604845 5.37437,-145.349783 -20.31338,-213.291687 -28.4166,-15.98017 44.05165,-35.81651 -7.659,-50.8938 -55.34834,-9.62609 35.73615,-22.99254 21.0955,-59.52609 10.75975,-63.3085 -0.97267,-128.00119 -15.81905,-190.07568 20.92113,31.77747 26.2114,91.10023 26.3696,135.18618 13.3788,50.52834 -31.96634,110.09492 26.365,132.22547 -61.29857,26.13203 -17.1117,102.687042 -26.3771,154.334818 -3.3527,27.882564 9.0114,70.122361 -3.66157,92.040789 z"
         style="fill:#000000;stroke-width:0.35277778"
         inkscape:connector-curvature="0" />
      <path
         id="path69"
         d="m 700.9449,63.135146 c -4.36092,-59.1060538 10.42698,-120.960936 -3.04406,-178.553696 -26.86399,-10.49012 -49.67087,-20.66937 -11.05945,-36.38179 48.96749,-20.76605 -6.44746,-52.51571 -6.93861,-41.52163 40.1372,-37.73375 6.33601,-98.69626 12.42717,-147.34913 11.28508,-18.00443 -6.91921,-104.27211 8.03435,-81.2535 -0.0891,69.3954 -2.6358,138.73425 11.46934,206.94725 -12.4514,22.9426 27.66073,35.24321 30.54198,46.02558 1.21402,4.54318 -4.18185,8.81682 -22.90476,13.50342 -36.71687,22.37591 34.81174,31.72467 -7.56724,54.28105 -5.91556,54.452381 1.93153,112.512515 -7.81672,165.167695 z"
         style="fill:#000000;stroke-width:0.35277778"
         inkscape:connector-curvature="0" />
      <path
         id="path67"
         d="m 1144.2503,73.951898 c -10.5852,-69.9672241 5.4457,-142.745121 -9.349,-212.383898 -6.3376,-27.61574 -75.2402,-23.92732 -22.1826,-43.97323 29.5102,-10.20112 25.4844,-29.87475 2.8791,-38.21512 48.2455,-26.61638 1.0306,-100.33161 18.5332,-145.65405 3.4489,-21.36429 -19.4357,-80.75474 -1.9372,-82.84688 10.9905,55.00034 5.7747,111.64962 12.5338,165.82503 1.3485,31.54078 -2.7674,69.68618 26.4395,78.73644 -27.9241,10.59429 -52.6233,38.75219 -13.6991,49.75975 -18.1414,48.13863 -5.8913,103.112337 -9.3831,154.14130502 -3.5737,22.87710798 7.4747,57.12053898 -3.8346,74.61065298 z"
         style="fill:#000000;stroke-width:0.35277778"
         inkscape:connector-curvature="0" />
      <path
         id="path65"
         d="m 410.48129,81.362221 c -6.4983,-48.706515 -0.28701,-101.479455 -1.25539,-151.694435 24.72722,-33.629796 -52.09763,-68.492386 7.29656,-68.238436 81.48614,-34.80723 -91.91863,-52.4076 -9.89933,-82.41575 13.20903,-51.56082 -6.83389,-108.17558 -4.0833,-162.32446 -8.2594,-22.85164 11.29435,-58.89795 6.39636,-16.06203 -2.59755,51.67269 4.70884,104.96205 23.71658,152.83094 26.36582,18.39618 -27.30224,40.47646 15.02341,58.28188 22.21265,17.46313 60.78147,42.18354 8.84013,47.63033 -47.94493,32.60837 -34.20878,107.875422 -39.57436,161.527195 -4.52891,17.654889 6.67001,48.280666 -6.46066,60.464766 z"
         style="fill:#000000;stroke-width:0.35277778"
         inkscape:connector-curvature="0" />
      <path
         id="path63"
         d="m 597.0206,64.555802 c -5.53248,-52.591451 5.65861,-112.14764 -4.77932,-165.599752 -21.40518,-16.54211 15.31839,-42.21359 -26.43614,-48.61256 -37.4374,-5.66319 -41.92195,-26.64526 -0.92661,-33.60631 48.28321,-28.08116 36.76411,-104.18147 25.17481,-150.47091 9.9444,-30.10726 -6.78615,-74.21609 8.85568,-95.78841 8.64275,52.62716 -4.88204,105.93603 13.11001,157.09904 2.80753,43.83604 20.91542,75.92404 -25.58193,100.06636 -2.62224,32.10311 71.53221,29.43227 22.75067,61.97628 -11.65709,57.270347 -0.22967,118.4721062 -9.19088,174.724536 z"
         style="fill:#000000;stroke-width:0.35277778"
         inkscape:connector-curvature="0" />
      <path
         id="path61"
         d="m 829.7248,68.846272 c -2.57656,-58.223503 8.92625,-123.000496 -7.12819,-182.118452 -33.02551,-28.66646 -3.79904,-34.22139 19.61355,-53.24665 -21.33248,-15.89717 -76.01256,-24.48431 -24.74712,-45.06592 19.86353,-51.2793 14.31387,-112.73603 7.75598,-168.97678 -7.58389,-19.65569 -6.55815,-77.69042 3.37179,-28.55222 17.04418,56.41565 2.57113,114.11227 12.72865,170.92455 9.91848,21.92831 14.90228,25.13469 -3.43799,39.36652 3.13605,27.16127 83.16917,24.72852 27.28808,43.99256 -41.06334,32.64028 -22.72741,75.950516 -28.17796,123.88353 -5.63018,29.6168581 9.82805,79.36836 -7.26679,99.792862 z"
         style="fill:#000000;stroke-width:0.35277778"
         inkscape:connector-curvature="0" />
    </g>
    <path
       style="fill:#000000;stroke-width:0.35277778"
       d="m 1455.8509,325.12162 c -4.6124,-50.58947 0.5218,-102.93472 -6.179,-153.70495 -2.3889,-25.76368 -11.4106,-56.48034 -22.1282,-74.220066 45.6403,-10.07922 -1.2265,-43.49921 -21.3052,-45.26282 25.8688,-9.84006 41.0532,-25.8373 44.1303,-54.6445998 2.2982,-32.9153402 4.4948,-66.4385002 -0.273,-99.4194542 -1.3112,-29.50828 -16.5181,-60.9833 -14.8463,-88.35242 15.4784,28.587 18.4424,66.64459 22.7626,99.896234 3.7868,32.66134 0.6762,65.71532 0.5234,98.6022502 0.51,17.5022898 5.1328,26.4358098 -7.3666,42.1525298 4.6035,20.61046 60.4815,27.88438 15.8072,41.6474 -30.9563,20.771266 -5.8292,61.610486 -8.8785,91.728636 0.9167,46.38806 3.7313,93.13953 2.161,139.32516 l -2.0804,2.51799 -2.3277,-0.26589 z"
       id="path97"
       inkscape:connector-curvature="0" />
    <path
       style="fill:#000000;stroke-width:0.35277778"
       d="m 1156.9711,311.02458 c -1.6312,-53.85413 3.9918,-108.67667 1.7723,-162.85899 8.5627,-28.17694 -67.3788,-25.96742 -26.6873,-44.05314 14.3001,-9.566476 53.0057,-33.756906 15.5756,-39.702096 -39.0294,0.13221 16.7232,-23.98042 6.1193,-44.41342 6.6124,-31.45471 -7.5726,-64.46985 -4.7588,-96.89171 0.877,-34.949094 6.5505,-70.999254 -0.532,-105.967164 18.4242,14.03518 2.8361,60.35991 7.9519,86.318324 -2.2325,25.44983 2.0291,50.72404 3.3723,75.88661 11.3281,27.1990002 -4.7397,61.38811 16.5631,81.06023 12.0463,8.08622 41.7286,19.3147 10.1619,25.66925 -34.0139,10.08657 -21.6764,32.483446 -2.0408,43.398216 -31.8172,18.63233 -13.1474,62.09482 -19.0926,92.27631 -4.4221,27.08319 5.8998,71.40088 -8.4049,89.27758 z"
       id="path95"
       inkscape:connector-curvature="0" />
    <path
       style="fill:#000000;stroke-width:0.35277778"
       d="m 1600.2765,321.84134 c -8.1461,-39.12219 -0.5985,-80.27598 -3.1706,-120.21034 -3.3382,-33.65701 6.7301,-72.21619 -12.5857,-102.027046 -8.0808,-16.85784 -60.6843,-14.99064 -22.8686,-29.60629 17.0534,-7.31737 49.4754,-31.4052 13.0962,-36.87269 -9.3523,-10.8312 28.8802,-13.40919 18.4904,-34.7559398 -1.3766,-34.2456502 -8.6539,-66.4065402 -2.1621,-100.6890842 -0.4579,-33.74493 -8.6049,-66.94954 -9.619,-100.57863 16.2951,7.81744 7.7546,52.82758 14.8894,74.19931 7.3236,31.189754 -6.6945,63.113684 4.4073,93.292554 5.9878,27.9267002 -12.0474,70.75171 27.8606,74.96057 -17.9945,12.64136 -61.7111,41.98123 -15.3708,50.80512 -13.991,29.676436 -7.2488,65.561006 -9.2229,98.040746 -0.3814,43.64458 0.702,87.37205 0.4141,130.9656 l -1.8597,2.45954 -2.2986,0.0162 z"
       id="path93"
       inkscape:connector-curvature="0" />
    <path
       style="fill:#000000;stroke-width:0.35277778"
       d="m 866.50748,329.25166 c -6.6969,-36.48354 -0.3591,-77.14815 -1.8822,-115.16334 -6.6903,-28.61551 17.9284,-70.96482 -13.6265,-88.54563 -19.9741,-23.47861 55.8832,-10.05235 44.0701,-41.864496 -11.0931,-19.832 -60.2862,-22.07263 -55.2065,-40.62126 40.6357,-10.50936 24.271,-53.18076 26.1941,-82.65337 -5.535,-39.80798 -8.4367,-79.780934 -7.9299,-120.068394 -0.581,-32.17277 14.9857,0.10165 6.6336,13.96387 -3.0192,48.029094 7.2249,95.674984 20.3871,141.4665942 15.6443,13.19838 15.9051,26.4893898 -0.086,39.2761998 7.1596,26.09582 55.0799,42.32524 53.6435,62.93673 -30.1408,6.049606 -64.193,25.783286 -54.0727,61.475916 -16.1715,34.08238 -9.0253,72.71237 -11.6642,109.33241 -3.7371,18.14874 5.7198,48.03077 -6.4606,60.46477 z"
       id="path91"
       inkscape:connector-curvature="0" />
    <path
       style="fill:#000000;stroke-width:0.35277778"
       d="m 1053.0468,312.44524 c -5.4252,-33.28608 3.0369,-71.36412 -0.6904,-106.56072 -1.139,-26.35568 3.952,-55.81933 -14.6759,-75.79507 28.8421,-28.53345 -37.062,-33.843776 -50.42142,-47.638576 27.78182,-17.40273 72.76982,-29.15657 64.56842,-73.1033398 7.0141,-35.2186402 2.7069,-67.9776602 -5.9197,-101.8211002 7.8503,-28.254284 0.3776,-57.647474 2.9266,-86.445444 15.7108,-2.09788 7.6229,46.3893 9.6878,62.6194 -10.7036,32.805904 9.1373,63.458264 9.6707,95.681864 -4.9148,22.3536402 12.3576,51.35994 6.6716,67.19564 -32.6702,13.85523 -45.4462,53.511566 0.1174,60.475346 22.5705,10.86643 -22.8529,30.4552 -12.7745,52.57762 -5.3399,49.67091 -1.1703,100.07544 -3.8334,150.01117 l -2.351,2.59148 z"
       id="path89"
       inkscape:connector-curvature="0" />
    <path
       style="fill:#000000;stroke-width:0.35277778"
       d="m 1285.751,316.73571 c -3.6533,-31.07242 4.3672,-67.7477 1.3414,-101.01762 -0.3982,-31.10971 -0.6052,-64.19414 -12.9452,-92.82505 -46.1487,-21.60621 52.2753,-31.232326 12.1474,-49.267126 -16.0732,-8.89489 -58.4432,-16.68726 -20.6932,-31.64068 31.2828,-20.36207 15.3287,-58.51677 19.0357,-87.97921 10.2212,-45.5881 -7.9145,-90.564304 -9.6935,-135.715104 16.5944,13.3176 13.2206,61.81371 20.0783,88.045414 -0.6087,34.64732 -5.9693,68.99217 2.3191,103.3639002 -0.9098,17.9351498 24.7307,27.1326098 -2.838,35.3219198 -10.9267,29.42242 73.4766,25.56619 37.0631,42.53184 -25.0901,10.58066 -43.0401,39.600176 -35.237,60.593466 -9.4715,29.0456 0.3428,66.83165 -3.4428,99.1109 -5.057,18.47319 9.2418,60.96383 -7.1353,69.47735 z"
       id="path87"
       inkscape:connector-curvature="0" />
    <g
       id="g3924"
       transform="translate(-383.79904,-83.388092)">
      <path
         inkscape:connector-curvature="0"
         id="path109"
         d="m 167.59727,224.09697 c -5.40464,-8.23559 -2.84116,-18.54058 -7.92847,-26.91667 -2.19557,-8.96494 -1.48158,-20.38295 4.84527,-27.56029 9.81344,-9.13567 19.54588,5.11938 13.98812,14.70017 -3.11799,11.99245 -8.24234,23.63552 -9.84208,35.89941 -0.006,0.93278 0.58227,4.15439 -1.06284,3.87738 z"
         style="fill:#000000;stroke-width:0.06352109" />
      <path
         inkscape:connector-curvature="0"
         id="path107"
         d="m 137.14184,199.91591 c 0.63066,-8.78103 -1.62938,-17.48997 -2.63647,-26.07144 -4.02191,-9.57308 -6.49403,-23.81406 4.03131,-30.19241 14.33011,-8.71159 20.7804,10.85399 12.72876,20.53847 -6.1606,11.2136 -6.97455,24.73334 -13.45856,35.73164 l -0.66488,-0.007 z"
         style="fill:#000000;stroke-width:0.07256043" />
      <path
         inkscape:connector-curvature="0"
         id="path105"
         d="m 150.67591,278.30399 c -5.94694,-11.10925 -11.29204,-23.16776 -11.43777,-36.03003 -4.66108,-9.66021 5.76335,-24.74125 16.35496,-19.38335 10.31324,5.17596 7.43228,18.45416 2.96916,26.77955 -5.09609,8.85547 -4.40626,19.75381 -7.88635,28.63383 z"
         style="fill:#000000;stroke-width:0.07319179" />
      <path
         inkscape:connector-curvature="0"
         id="path101"
         d="m 33.905365,157.34381 c -10.344097,-12.95487 -14.32932,-30.07454 -14.635772,-46.39073 0.721482,-13.3091 21.287332,-19.46555 25.146122,-4.74745 -0.0189,12.80813 -8.89203,24.03289 -8.80484,37.27251 -1.26357,3.613 1.17491,12.99288 -1.70551,13.86567 z"
         style="fill:#000000;stroke-width:0.07757023" />
      <path
         inkscape:connector-curvature="0"
         id="path99"
         d="m 30.356717,168.54183 c -11.355914,3.54884 -17.603506,16.2711 -15.400824,27.62833 2.562658,12.90436 15.486341,23.31572 28.82679,20.37229 4.59089,-3.21218 -13.493325,-5.53876 -9.998963,-13.90865 -1.470796,-11.17287 17.401087,-14.02759 10.375488,-26.21855 -2.201068,-6.08746 -7.653008,-8.6377 -13.8025,-7.87343 z"
         style="fill:#000000;stroke-width:0.0688614" />
      <path
         inkscape:transform-center-y="13.547424"
         inkscape:transform-center-x="-5.585325"
         inkscape:connector-curvature="0"
         id="path56"
         d="m 35.20817,236.25992 c -13.800237,-1.42883 -17.29451,17.7642 -8.172141,25.55349 9.909669,6.49985 6.44666,23.11141 -5.245471,24.64731 9.401693,4.43436 22.282433,-1.09859 28.598493,-8.76103 11.366613,-13.10292 4.614581,-37.46102 -12.86716,-40.87477 z"
         style="fill:#000000;stroke-width:0.07397717" />
    </g>
    <path
       style="fill:#000000;fill-opacity:1;stroke-width:0.4663617"
       d="m -49.235166,193.09596 c -12.748791,0 -24.957637,17.61934 -22.612572,30.15061 2.826578,15.10427 13.161754,22.61257 25.910568,22.61257 12.74877,0 21.27595,-9.20265 23.16035,-28.0757 1.2666,-12.6857 -13.70957,-24.68748 -26.458346,-24.68748 z m -2.383316,2.59467 c 5.193312,0.0594 12.372662,3.05283 12.828602,9.84934 -0.22588,15.27799 -15.823003,12.33663 -15.864111,24.87827 -0.799957,13.75442 15.099111,11.23107 12.398101,13.21483 -13.340452,2.94343 -24.469139,-7.27905 -27.031798,-20.18341 -2.202682,-11.35723 4.045215,-24.07945 15.401129,-27.62829 0.768686,-0.0955 1.526177,-0.13922 2.268077,-0.13074 z"
       id="path3864"
       inkscape:connector-curvature="0"
       sodipodi:nodetypes="sssssscccccs" />
    <g
       id="g4781">
      <path
         sodipodi:nodetypes="ssscs"
         inkscape:connector-curvature="0"
         id="path3962"
         d="m 13.796064,271.36119 c 0.487417,11.52855 11.887999,19.65253 21.461215,19.65253 9.573194,0 19.575327,-13.37463 19.406042,-23.00561 -0.227875,-12.96428 -14.717998,-33.28028 -19.445922,-33.22344 -5.956348,0.34034 -22.236036,17.30691 -21.421335,36.57652 z"
         style="fill:#000000;fill-opacity:1;stroke:#ffffff;stroke-width:3.18134999;stroke-miterlimit:4;stroke-dasharray:none;stroke-opacity:1;paint-order:markers stroke fill" />
      <path
         sodipodi:nodetypes="sscss"
         inkscape:connector-curvature="0"
         id="path3878"
         d="m 34.65835,238.7825 c 3.474741,-0.006 10.342941,9.0173 10.142363,12.42492 -0.0937,1.59186 -2.739597,-2.43355 -10.681423,-2.15164 -7.345087,0.26947 -10.779806,3.43443 -10.666084,2.27318 0.403358,-4.11879 8.149934,-12.5408 11.205144,-12.54646 z"
         style="fill:#ffffff;fill-opacity:1;stroke-width:0.35019594" />
    </g>
    <text
       xml:space="preserve"
       style="font-style:normal;font-weight:normal;font-size:20.98652649px;line-height:1.25;font-family:sans-serif;letter-spacing:0px;word-spacing:0px;fill:#ffffff;fill-opacity:1;stroke:none;stroke-width:0.52466315"
       x="24.908428"
       y="117.71236"
       id="text3883"><tspan
         sodipodi:role="line"
         id="tspan3881"
         x="24.908428"
         y="117.71236"
         style="fill:#ffffff;stroke-width:0.52466315">A</tspan></text>
    <path
       style="fill:#d3bc5f;fill-opacity:1;stroke-width:0.4663617"
       d="m -80.468011,159.71641 c -1.88439,18.87305 -11.748231,29.6791 -24.497009,29.6791 -12.74881,0 -23.08375,-7.50837 -25.91032,-22.61264 -2.34507,-12.53127 9.86384,-30.15018 22.61263,-30.15018 12.748778,0 29.061299,10.39802 27.794699,23.08372 z"
       id="path3885"
       inkscape:connector-curvature="0"
       sodipodi:nodetypes="sssss" />
    <path
       inkscape:connector-curvature="0"
       id="path3929"
       d="m -22.214384,345.54662 c 10.793119,-3.01518 23.2015625,-2.22336 34.597375,-3.7238 8.426074,-2.79751 21.842631,3.44835 26.266971,-6.52754 6.51632,-6.65331 4.55664,16.53785 13.80402,12.11146 5.66265,-3.88133 4.98802,-18.74341 10.708,-17.72364 4.27606,11.93784 16.66586,5.84425 25.58596,5.61477 11.825198,-2.75675 23.772258,-4.72576 35.907348,-5.67788 9.66383,-1.05697 0.38025,4.51151 -4.01941,2.37869 -14.5332,0.40849 -28.587468,4.79696 -42.003838,10.01257 -3.54202,5.06875 -7.53373,5.51163 -11.81932,1.05089 -7.65512,2.86958 -11.22414,17.73226 -17.46487,17.86523 -2.64653,-8.90255 -9.51742,-18.60672 -19.97872,-14.58322 -10.697706,-3.93102 -22.1243045,-0.72181 -33.2144635,-0.5117 -5.562852,-0.62678 -14.2941135,3.0378 -18.3690655,-0.28596 z"
       style="fill:#000000;stroke-width:0.10657947" />
    <text
       xml:space="preserve"
       style="font-style:normal;font-weight:normal;font-size:29.5123558px;line-height:1.25;font-family:sans-serif;letter-spacing:0px;word-spacing:0px;fill:#ffffff;fill-opacity:1;stroke:none;stroke-width:0.73780888"
       x="-32.388176"
       y="268.5907"
       id="text3958"><tspan
         sodipodi:role="line"
         id="tspan3956"
         x="-32.388176"
         y="268.5907"
         style="fill:#ffffff;stroke-width:0.73780888">$</tspan></text>
  </g>
</svg>
